<?xml version="1.0" encoding="utf-8"?>
<!-- Generator: Adobe Illustrator 22.1.0, SVG Export Plug-In . SVG Version: 6.00 Build 0)  -->
<svg version="1.1" id="Layer_1" xmlns="http://www.w3.org/2000/svg" xmlns:xlink="http://www.w3.org/1999/xlink" x="0px" y="0px"
	 viewBox="0 0 2353.5 177.8" style="enable-background:new 0 0 2353.5 177.8;" xml:space="preserve">
<style type="text/css">
	.st0{stroke:#000000;stroke-width:1.6;}
</style>
<title>black-border</title>
<path class="st0" d="M1257.4,3.1l-13.7,14.6l42.3,42.2l-15,14.3l-13.8-13.7l-27.8,28.7l-27.6-27.9l13.6-14.1l13.6,13.5l14.7-14.7
	l-42.7-41.8l-13.8,14.4l13.5,14.2l-13.2,14l-13.8-14l-27.5,28l13,13l14.5-13.2l82.7,83.8l-13.8,14.4l-13.8-13.8l-13.9,13.8
	l-13.9-14.1l-13.8,14l-13.9-13.9l-15.1,14v0.6l-12.6-13.4l43.4-42.8l-15-14.3l-13.8,13.8l-28.7-27.6l-27.6,27.5l13.7,14.2l14.6-14.2
	l14.1,14.7l-14.2,13.7l-29.9,28.3v0.2l-13.6-13.8l13.9-13.8l-14.1-14.3l-13.9,14.1l-27.9-28.2l14.4-14.5l14.1,14.2l28.9-29.3
	l-0.1-0.1l55.4-55.8l-13.3-13.3l-13.8,14.2l-14.2-14.2l-13.5,14.3l-15.2-14.3l-13.3,14.2l-14.6-14.6l-13.8,14.6l42.3,41.9l-15,14.5
	l-13.9-13.7l-27.8,28.6l-28-28.3l13.9-13.5l13.6,13.5l14.7-14.7L1005,5l-13.8,14.4l13.5,14.2L991,46.8l-14.1-14.3l-27.8,28.2
	l13.2,13.1l14.6-13.3l83.5,84.3l-14,14.4l-14-13.9l-14,13.8l-14.1-14.2l-13.9,14.1l-14-14l-15.3,14.1v1.5h-0.3l-0.1-2.2L948,145
	l43.3-42.9l-15-14.2l-13.7,13.8l-28.8-27.5l-27.5,27.5l13.8,14.1l14.6-14.2l14.2,14.6L934.7,130l-29.8,28.3v2.3h-0.1V179l1177.5-0.4
	v-18.3h-0.2v-1.6l-13.6-13.9l13.8-13.7l-14-14.3l-13.8,14l-27.5-27.9l13.9-14.6l14.1,14.1l27.8-28.3l0,0l56.4-56.8L2126,3.9
	l-13.8,14.2l-14.2-14.2l-13.5,14.4l-15.2-14.4L2056,18.1l-14.6-14.6l-13.8,14.6l41.9,42.5l-14.7,13.9l-13.8-13.7l-27.6,28.3
	l-27.6-27.9l13.5-13.8l13.5,13.6l14.8-14.8l-42.7-41.8l-13.8,14.4l13.5,14.1l-13.3,13.5l-13.7-13.8l-27.5,28l13,13l14.5-13.2
	l82.7,83.8l-13.9,14.3l-13.8-13.8l-13.9,13.8l-13.9-14.1l-13.8,14l-13.8-13.9l-15.1,13.9v-0.1l-12.6-13.5l43.4-42.9L1958,87.7
	l-13.8,13.7l-28.7-27.6l-27.6,27.5l13.7,14.2l14.6-14.1l14.1,14.6l-14.2,13.8l-29.8,28.3v0.6l-13.2-13.4l13.8-13.7l-14-14.3
	l-13.8,14l-27.4-27.7l13.8-14.8l14.2,14.2l28-28.6l0,0l56.2-56.6l-13.3-13.3l-13.8,14.1l-14.2-14.1l-13.5,14.3L1874,4.4l-13.3,14.2
	l-14.6-14.6l-13.8,14.6l42.2,42.3L1859.6,75l-13.8-13.7l-27.7,28.3l-27.6-28l13.6-13.7l13.6,13.6l14.7-14.7l-42.7-41.8l-13.8,14.5
	l13.5,14.1l-13.4,13.4l-13.6-13.8l-27.5,28l13.1,13l14.5-13.2l82.7,83.8l-13.9,14.3l-13.8-13.8l-13.9,13.7l-13.9-14l-13.8,14
	l-13.8-14l-15.1,14v-0.2l-12.6-13.4l43.5-42.9l-15-14.2l-13.8,13.7l-28.7-27.6l-27.6,27.5l13.7,14.2l14.6-14.2l14.1,14.7l-14.2,13.7
	l-29.9,28.3v0.2l-13.5-13.8l13.8-13.8l-14-14.2l-13.8,14l-27.5-27.9l13.9-14.7l14.1,14.2l28.3-28.9l56-56.3L1735,4.1l-13.8,14.2
	l-14.2-14.2l-13.5,14.3l-15.2-14.3L1665,18.3l-14.6-14.6l-13.7,14.6l42.3,42.2l-15,14.3L1650.1,61l-27.7,28.3L1595,61.4l13.5-13.8
	l13.5,13.5l14.8-14.7L1594,4.6l-13.8,14.4l13.5,14.1l-13.4,13.3l-13.6-13.7l-27.5,28l13,13l14.5-13.2l82.7,83.8l-13.9,14.3
	l-13.8-13.8l-13.9,13.7l-13.9-14l-13.8,14l-13.9-14l-15.1,13.9v-0.2l-12.6-13.5l43.4-42.8l-15-14.3l-13.8,13.8L1524.6,74l-27.6,27.5
	l13.7,14.2l14.6-14.2l14.2,14.7l-14.2,13.7l-29.9,28.3v2.2h-0.1v-1.6l-13.8-14l13.9-13.8l-14.1-14.3l-13.8,14.1l-27-27.2l13.7-14.4
	l14.2,14.2l28.3-28.9l0,0l56-56.2l-13.3-13.3L1525.5,19l-14.2-14.1l-13.5,14.3l-15.2-14.3L1469.2,19l-14.6-14.6L1440.9,19l42.2,42.3
	l-14.9,14.2l-13.8-13.7l-27.4,28.1l-28.2-28.5l13.5-13.3l13.6,13.5l14.8-14.7L1397.7,5L1384,19.4l13.5,14.2l-13,12.9L1369.7,32
	l-27.8,28.1l13.2,13.1l14.6-13.3l83.5,84.3l-14,14.4l-14-13.9l-14,13.8l-14.1-14.2l-13.9,14.1l-14-14l-15.3,14.1v1.9l0,0v-2
	l-12.6-13.5l43.4-42.8l-15-14.3l-13.8,13.8L1327.3,74l-27.6,27.5l13.7,14.2l14.6-14.2l14.1,14.7l-14.2,13.7l-29.9,28.3v2.3h-0.1
	v-1.8l-13.7-13.9l13.8-13.7l-14-14.3l-13.6,14.1l-27.6-28l14-15L1271,102l28.2-28.8l0,0l56-56.4L1342,3.6l-13.8,14.1l-14.2-14.1
	l-13.6,14.3l-15.2-14.3L1272,17.7L1257.4,3.1z M1397.1,144.4l14.1-14.3l-13.9-13.6l-14.1,13.9L1397.1,144.4z M1593.9,144.6l14-14.2
	l-13.8-13.5l-13.9,13.8L1593.9,144.6z M1789.5,144.9l14-14.2l-13.8-13.5l-13.9,13.8L1789.5,144.9z M1984.8,144.4l14-14.2l-13.8-13.5
	l-13.8,13.8L1984.8,144.4z M1004.3,145l14.1-14.3l-14-13.6l-14,13.9L1004.3,145z M1200.7,144.5l14-14.2l-13.8-13.5l-13.9,13.9
	L1200.7,144.5z M2070.5,32.2l14-14.1l13.6,13.8l-13.9,14.3L2070.5,32.2L2070.5,32.2z M1875.1,32.6l14-14.1l13.6,13.8l-13.9,14.3
	L1875.1,32.6L1875.1,32.6z M1679.5,32.5l14-14.1l13.6,13.8l-13.9,14.3L1679.5,32.5z M1483.8,33.1l14.1-14.1l13.6,13.8l-13.9,14.3
	L1483.8,33.1L1483.8,33.1z M1286.3,31.9l14-14.1l13.6,13.8l-13.9,14.3L1286.3,31.9z M1090.5,32.6l14-14.1l13.6,13.8l-13.9,14.3
	L1090.5,32.6z"/>
<path class="st0" d="M81.9,3.6L68.1,18.2l42.3,42.2l-15,14.2L81.6,61L53.8,89.6L26.2,61.7l13.6-14.1l13.6,13.5l14.7-14.7L25.4,4.6
	L11.6,19l13.5,14.2l-13.2,14l-13.8-14l-27.5,28l13,13L-1.9,61l82.6,83.8L67,159.1l-13.9-13.8L39.3,159L25.3,145l-13.8,14l-13.9-13.9
	l-15.1,14v0.6L-30,146.2l43.4-42.8l-15-14.3l-13.8,13.8L-44,75.2l-27.6,27.5l13.7,14.2l14.6-14.2l14.1,14.7l-14.2,13.7l-29.9,28.3
	v0.2l-13.6-13.8l13.9-13.8L-87,117.7l-13.9,14.1l-27.9-28.2l14.4-14.5l14.1,14.2L-71.4,74l-0.1-0.1L-16,18.1L-29.3,4.8L-43.1,19
	L-57.2,4.8l-13.5,14.3L-86,4.8L-99.3,19l-14.6-14.6L-127.7,19l42.3,41.9l-15,14.5l-13.9-13.7L-142,90.3L-170,62l13.9-13.5l13.6,13.5
	l14.7-14.7l-42.7-41.9l-13.8,14.4l13.5,14.2l-13.8,13.3l-14.1-14.3l-27.8,28.2l13.2,13.1l14.6-13.3l83.5,84.3l-14,14.4l-14-13.9
	l-14,13.8l-14.1-14.2l-13.9,14.1l-14-14l-15.3,14.1v1.5h-0.3l-0.1-2.2l-12.7-13.4l43.3-42.9l-15-14.2l-13.7,13.8l-28.8-27.5
	l-27.5,27.5l13.8,14.1l14.6-14.2l14.2,14.6l-14.2,13.8l-29.8,28.3v2.3h-0.1v18.4L906.8,179v-18.3h-0.2v-1.6L893,145.2l13.8-13.7
	l-14-14.3l-13.8,14l-27.5-27.9l13.9-14.6l14.1,14.1l27.8-28.3l0,0l56.4-56.8L950.5,4.4l-13.8,14.2L922.6,4.4l-13.5,14.4L893.8,4.4
	l-13.3,14.2L865.9,4l-13.8,14.6l41.9,42.5L879.4,75l-13.9-13.6l-27.6,28.3l-27.6-27.9l13.5-13.8l13.5,13.6l14.8-14.8L809.4,4.9
	l-13.8,14.4l13.5,14.1L795.8,47l-13.6-13.8l-27.5,28l13,13l14.5-13.2l82.7,83.8L851,159l-13.8-13.8l-13.9,13.8l-13.9-14.1l-13.8,14
	L781.7,145l-15.1,13.9v-0.1L754,145.3l43.4-42.9l-15-14.2l-13.8,13.7L740,74.3l-27.6,27.5l13.7,14.2l14.6-14.1l14.1,14.6l-14.2,13.8
	l-29.8,28.3v0.6l-13.2-13.4l13.8-13.7l-14-14.3l-13.8,14l-27.4-27.7l13.8-14.8l14.2,14.2l28-28.6l0,0l56.2-56.6L755.2,4.9L741.4,19
	L727.3,4.9l-13.5,14.3L698.5,4.9L685.2,19L670.6,4.4L656.8,19L699,61.3l-14.9,14.1l-13.8-13.7L642.5,90l-27.6-28l13.6-13.7
	l13.6,13.6l14.7-14.7L614.1,5.3l-13.8,14.5l13.5,14.1l-13.4,13.4l-13.6-13.8l-27.5,28l13.1,13l14.5-13.2l82.7,83.8l-13.9,14.3
	l-13.8-13.8L628,159.3l-14-14l-13.8,14l-13.8-14l-15.1,14v-0.2l-12.6-13.4l43.5-42.9l-15-14.2l-13.8,13.7l-28.7-27.6l-27.6,27.5
	l13.7,14.2l14.6-14.2l14.1,14.7l-14.2,13.7l-29.9,28.3v0.2l-13.5-13.8l13.7-13.8l-14-14.2l-13.8,14l-27.5-27.9l13.9-14.7l14.1,14.2
	l28.3-28.9l56-56.2L559.5,4.6l-13.8,14.2L531.6,4.6L518.1,19L502.9,4.6l-13.3,14.2L474.9,4.2l-13.7,14.6l42.3,42.2l-15,14.3
	l-13.9-13.7l-27.7,28.2l-27.5-27.8l13.5-13.8l13.5,13.5L461.2,47L418.5,5.1l-13.8,14.4l13.5,14.1l-13.4,13.4l-13.6-13.7l-27.5,28
	l13,13l14.5-13.2l82.7,83.8l-13.9,14.3l-13.8-13.8l-13.9,13.7l-13.9-14l-13.8,14l-13.9-14l-15.1,13.9v-0.2l-12.6-13.5l43.4-42.8
	l-15-14.3l-13.8,13.8l-28.7-27.6L321.5,102l13.7,14.2l14.6-14.2l14.2,14.7l-14.2,13.7l-29.9,28.3v2.2h-0.1v-1.6l-13.8-14l13.9-13.8
	l-14.1-14.3L292,131.2L265,104l13.7-14.4l14.1,14.2l28.3-28.9l0,0l56-56.2L363.7,5.3L350,19.5L335.8,5.3l-13.5,14.3L307.1,5.3
	l-13.3,14.1L279.1,4.9l-13.8,14.6l42.1,42.3l-14.9,14.1l-13.9-13.7l-27.4,28.1l-28.2-28.5l13.5-13.3L250.2,62L265,47.3L222.2,5.5
	l-13.8,14.4L222,34.1L209,47l-14.8-14.5l-27.8,28.1l13.2,13.1l14.6-13.3l83.5,84.3l-14,14.4l-14-13.9l-14,13.8l-14.1-14.2L207.7,159
	l-14-14l-15.3,14.1v1.9l0,0v-2l-12.6-13.5l43.4-42.8l-15-14.3l-13.8,13.8l-28.7-27.6L124.2,102l13.7,14.2l14.6-14.2l14.1,14.7
	l-14.2,13.7l-29.9,28.3v2.3h-0.1v-1.8l-13.6-13.9l13.8-13.7l-14-14.3L95,131.3l-27.6-28l14-15l14.1,14.2l28.2-28.8l0,0l56-56.4
	L166.5,4.1l-13.8,14.1L138.5,4.1L125,18.4L109.8,4.1L96.5,18.2L81.9,3.6z M221.6,144.9l14.1-14.3l-13.9-13.6L207.7,131L221.6,144.9z
	 M418.4,145.1l14-14.2l-13.8-13.5l-13.9,13.8L418.4,145.1z M614,145.3l14-14.2l-13.8-13.5l-13.9,13.8L614,145.3z M809.3,144.9
	l14-14.2l-13.8-13.5L795.6,131L809.3,144.9z M-171.3,145.5l14.1-14.3l-14-13.6l-14,13.9L-171.3,145.5z M25.2,145l14-14.2l-13.8-13.5
	l-13.9,13.9L25.2,145z M895,32.7l14-14.1l13.6,13.8l-13.9,14.3L895,32.7L895,32.7z M699.6,33.1l14-14.1l13.6,13.8l-13.9,14.3
	L699.6,33.1L699.6,33.1z M504,33l14-14.1l13.6,13.8L517.7,47L504,33z M308.3,33.6l14-14.1l13.6,13.8L322,47.6L308.3,33.6L308.3,33.6
	z M110.8,32.3l14-14.1L138.5,32l-13.9,14.3L110.8,32.3z M-85,33.1L-71,19l13.6,13.8l-13.9,14.3L-85,33.1z"/>
<title>black-border</title>
<path class="st0" d="M2433.4,2.1l-13.7,14.6l42.3,42.2l-15,14.3l-13.8-13.7l-27.8,28.7l-27.6-27.9l13.6-14.1l13.6,13.5l14.7-14.7
	l-42.7-41.8l-13.8,14.4l13.5,14.2l-13.2,14l-13.8-14l-27.5,28l13,13l14.5-13.2l82.7,83.8l-13.8,14.4l-13.9-13.8l-13.9,13.8
	l-13.9-14.1l-13.8,14l-13.9-13.9l-15.1,14v0.6l-12.6-13.4l43.4-42.8l-15-14.3l-13.8,13.8l-28.6-27.6l-27.6,27.5l13.7,14.2l14.6-14.2
	l14.1,14.7l-14.2,13.7l-29.9,28.3v0.2l-13.6-13.8l13.9-13.8l-14.1-14.3l-13.9,14.1l-27.9-28.2l14.4-14.5l14.1,14.2l28.9-29.3
	l-0.1-0.1l55.4-55.8l-13.3-13.3l-13.8,14.2l-14.2-14.2l-13.5,14.3l-15.2-14.3l-13.3,14.2l-14.6-14.6l-13.8,14.6l42.3,41.9l-15,14.5
	l-13.9-13.7l-27.8,28.6l-28-28.3l13.9-13.5l13.6,13.5l14.7-14.7L2181,4l-13.8,14.4l13.5,14.2L2167,45.8l-14.1-14.2l-27.8,28.1
	l13.2,13.1l14.6-13.3l83.5,84.3l-14,14.4l-14-13.9l-14,13.8l-14.1-14.2l-13.9,14.1l-14-14l-15.3,14.1v1.5h-0.3l-0.1-2.2L2124,144
	l43.3-42.9l-15-14.2l-13.7,13.8l-28.8-27.5l-27.5,27.5l13.8,14.1l14.6-14.2l14.2,14.6l-14.2,13.8l-29.8,28.3v2.3h-0.1V178
	l1177.5-0.4v-18.3h-0.2v-1.6l-13.6-13.9l13.8-13.7l-14-14.3l-13.8,14l-27.5-27.9l13.9-14.6l14.1,14.1l27.8-28.3l0,0l56.4-56.8
	L3302,2.9l-13.8,14.2l-14.2-14.2l-13.5,14.4l-15.2-14.4L3232,17.1l-14.6-14.6l-13.8,14.6l41.9,42.5l-14.7,13.9l-13.8-13.7
	l-27.6,28.3l-27.6-27.9l13.5-13.8l13.5,13.6l14.8-14.8l-42.7-41.8l-13.8,14.4l13.5,14.1l-13.3,13.5l-13.7-13.8l-27.5,28l13,13
	l14.5-13.2l82.7,83.8l-13.9,14.3l-13.8-13.8l-13.9,13.8l-13.9-14.1l-13.8,14l-13.8-13.9l-15.1,13.9v-0.1l-12.6-13.5l43.4-42.9
	L3134,86.7l-13.8,13.7l-28.7-27.6l-27.6,27.5l13.7,14.2l14.6-14.1l14.1,14.6l-14.2,13.8l-29.8,28.3v0.6l-13.2-13.4l13.8-13.7
	l-14-14.3l-13.8,14l-27.4-27.7l13.8-14.8l14.2,14.2l28-28.6l0,0l56.2-56.6l-13.3-13.3l-13.8,14.1l-14.2-14.1l-13.5,14.3L3050,3.4
	l-13.3,14.2l-14.6-14.6l-13.8,14.6l42.2,42.3L3035.6,74l-13.8-13.7l-27.7,28.3l-27.6-28l13.6-13.7l13.6,13.6l14.7-14.7l-42.7-41.8
	l-13.8,14.5l13.5,14.1l-13.4,13.4l-13.6-13.8l-27.5,28l13.1,13l14.5-13.2l82.7,83.8l-13.9,14.3l-13.9-13.8l-13.9,13.7l-13.9-14
	l-13.8,14l-13.8-14l-15.1,14v-0.2l-12.6-13.4l43.5-42.9l-15-14.2l-13.8,13.7l-28.7-27.6l-27.6,27.5l13.7,14.2l14.6-14.2l14.1,14.7
	l-14.2,13.7l-29.9,28.3v0.2l-13.5-13.8l13.8-13.8l-14-14.2l-13.8,14l-27.5-27.9l13.9-14.7l14.1,14.2l28.3-28.9l56-56.3L2911,3.1
	l-13.8,14.2l-14.1-14.2l-13.5,14.3l-15.2-14.3L2841,17.3l-14.6-14.6l-13.7,14.6l42.3,42.2l-15,14.3L2826.1,60l-27.7,28.3L2771,60.4
	l13.5-13.8l13.5,13.5l14.8-14.7L2770,3.6l-13.8,14.4l13.5,14.1l-13.4,13.3l-13.6-13.7l-27.5,28l13,13l14.5-13.2l82.7,83.8
	l-13.9,14.3l-13.8-13.8l-13.9,13.7l-13.9-14l-13.8,14l-13.9-14l-15.1,13.9v-0.2l-12.6-13.5l43.4-42.8l-15-14.3l-13.8,13.8L2700.6,73
	l-27.6,27.5l13.7,14.2l14.6-14.2l14.2,14.7l-14.2,13.7l-29.9,28.3v2.2h-0.1v-1.6l-13.8-14l13.9-13.8l-14.1-14.3l-13.8,14.1l-27-27.2
	l13.7-14.4l14.2,14.2l28.3-28.9l0,0l56-56.2l-13.4-13.3L2701.5,18l-14.2-14.1l-13.5,14.3l-15.2-14.3L2645.2,18l-14.6-14.6L2616.9,18
	l42.2,42.3l-14.9,14.2l-13.8-13.7l-27.4,28.1l-28.2-28.5l13.5-13.3l13.6,13.5l14.8-14.7L2573.7,4L2560,18.4l13.5,14.2l-13,12.9
	L2545.7,31l-27.8,28.1l13.2,13.1l14.6-13.3l83.5,84.3l-14,14.4l-14-13.9l-14,13.8l-14.1-14.2l-13.9,14.1l-14-14l-15.3,14.1v1.9l0,0
	v-2l-12.6-13.5l43.4-42.8l-15-14.3l-13.8,13.8L2503.3,73l-27.6,27.5l13.7,14.2l14.6-14.2l14.1,14.7l-14.2,13.7l-29.9,28.3v2.3h-0.1
	v-1.8l-13.7-13.9l13.8-13.7l-14-14.3l-13.6,14.1l-27.6-28l14-15L2447,101l28.2-28.8l0,0l56-56.4L2518,2.6l-13.8,14.1l-14.2-14.1
	l-13.6,14.3l-15.2-14.3L2448,16.7L2433.4,2.1z M2573.1,143.4l14.1-14.3l-13.9-13.6l-14.1,13.9L2573.1,143.4z M2769.9,143.6l14-14.2
	l-13.8-13.5l-13.9,13.8L2769.9,143.6z M2965.5,143.9l14-14.2l-13.8-13.5l-13.9,13.8L2965.5,143.9z M3160.8,143.4l14-14.2l-13.8-13.5
	l-13.8,13.8L3160.8,143.4z M2180.3,144l14.1-14.3l-14-13.6l-14,13.9L2180.3,144z M2376.7,143.5l14-14.2l-13.8-13.5l-13.9,13.9
	L2376.7,143.5z M3246.5,31.2l14-14.1l13.6,13.8l-13.9,14.3L3246.5,31.2L3246.5,31.2z M3051.1,31.6l14-14.1l13.6,13.8l-13.9,14.3
	L3051.1,31.6L3051.1,31.6z M2855.5,31.5l14-14.1l13.6,13.8l-13.9,14.3L2855.5,31.5z M2659.8,32.1l14.1-14.1l13.6,13.8l-13.9,14.3
	L2659.8,32.1L2659.8,32.1z M2462.3,30.9l14-14.1l13.6,13.8l-13.9,14.3L2462.3,30.9z M2266.5,31.6l14-14.1l13.6,13.8l-13.9,14.3
	L2266.5,31.6z"/>
</svg>
