<?xml version="1.0" encoding="UTF-8"?>
<svg viewBox="0 0 1237.1 178.41251" xmlns="http://www.w3.org/2000/svg">
 <g transform="translate(424.63 -326.94)">
  <path d="m-70.766 328.24-13.719 14.594 42.25 42.188-15 14.25-13.844-13.719-27.781 28.656-27.562-27.906 13.625-14.094 13.562 13.531 14.719-14.719-42.719-41.844-13.781 14.438 13.5 14.156-13.219 14.031-13.781-13.969-27.469 27.969 13.031 13.031 14.5-13.219 82.656 83.75-13.875 14.312-13.844-13.812-13.906 13.75-13.938-14.062-13.781 13.969-13.844-13.906-15.125 13.969v0.5625l-12.562-13.375 43.469-42.844-14.969-14.25-13.781 13.75-28.688-27.625-27.562 27.469 13.719 14.219 14.625-14.156 14.125 14.656-14.219 13.719-29.875 28.281v0.1875l-13.562-13.781 13.875-13.812-14.094-14.312-13.875 14.094-27.938-28.188 14.406-14.5 14.125 14.156 28.906-29.281-0.0625-0.0625 55.406-55.781-13.312-13.312-13.75 14.156-14.156-14.156-13.531 14.344-15.219-14.344-13.344 14.156-14.594-14.594-13.75 14.594 42.312 41.938-15.031 14.5-13.844-13.719-27.75 28.594-28-28.25 13.906-13.531 13.562 13.531 14.719-14.719-42.719-41.844-13.781 14.438 13.5 14.156-13.75 13.281-14.094-14.25-27.75 28.156 13.188 13.094 14.625-13.312 83.469 84.281-14.031 14.406-13.969-13.906-14.031 13.812-14.062-14.156-13.938 14.094-13.969-14-15.281 14.062v1.4688h-0.34375l-0.09375-2.1562-12.656-13.406 43.344-42.906-15-14.156-13.75 13.75-28.75-27.5-27.5 27.5 13.75 14.156 14.562-14.156 14.188 14.562-14.188 13.75-29.781 28.344v2.25h-0.09375v18.344l1177.5-0.40625v-18.344h-0.1875l0.0313-1.5938-13.656-13.938 13.75-13.719-13.969-14.25-13.75 14.031-27.531-27.906 13.938-14.625 14.125 14.125 27.781-28.344 0.0313 0.03125 56.438-56.812-13.312-13.312-13.75 14.156-14.156-14.156-13.531 14.344-15.219-14.344-13.344 14.156-14.594-14.594-13.75 14.594 41.937 42.5-14.687 13.938-13.844-13.688-27.625 28.312-27.562-27.906 13.5-13.781 13.531 13.562 14.75-14.75-42.719-41.812-13.812 14.438 13.5 14.125-13.281 13.5-13.656-13.844-27.469 27.969 13.031 13.031 14.5-13.219 82.688 83.75-13.906 14.312-13.844-13.812-13.906 13.75-13.938-14.062-13.781 13.969-13.844-13.906-15.094 13.938v-0.15625l-12.625-13.438 43.438-42.875-14.938-14.219-13.812 13.719-28.656-27.625-27.594 27.469 13.719 14.219 14.625-14.125 14.125 14.625-14.219 13.75-29.844 28.281v0.5625l-13.156-13.438 13.75-13.719-13.969-14.25-13.75 14.031-27.406-27.75 13.812-14.781 14.156 14.156 28-28.594 0.03125 0.03125 56.188-56.562-13.312-13.312-13.75 14.125-14.156-14.125-13.531 14.312-15.219-14.312-13.344 14.156-14.594-14.594-13.75 14.594 42.125 42.312-14.844 14.125-13.844-13.719-27.719 28.25-27.625-28 13.625-13.625 13.562 13.562 14.719-14.719-42.719-41.844-13.781 14.438 13.5 14.125-13.406 13.406-13.562-13.75-27.469 27.969 13.062 13.031 14.469-13.219 82.688 83.75-13.906 14.312-13.844-13.781-13.875 13.719-13.938-14.062-13.812 14-13.812-13.938-15.125 13.969v-0.1875l-12.625-13.438 43.469-42.875-14.969-14.219-13.781 13.719-28.688-27.594-27.562 27.469 13.688 14.219 14.625-14.156 14.125 14.656-14.188 13.719-29.875 28.281v0.21875l-13.469-13.75 13.75-13.75-13.969-14.219-13.75 14-27.531-27.875 13.938-14.656 14.125 14.156 28.281-28.875 55.969-56.25-13.344-13.312-13.75 14.156-14.156-14.156-13.531 14.344-15.219-14.344-13.344 14.156-14.594-14.594-13.719 14.594 42.281 42.156-15.031 14.281-13.844-13.719-27.688 28.25-27.469-27.844 13.469-13.75 13.531 13.531 14.75-14.719-42.719-41.844-13.812 14.438 13.5 14.156-13.375 13.344-13.562-13.719-27.469 27.969 13.031 13.031 14.5-13.219 82.656 83.781-13.875 14.312-13.844-13.812-13.906 13.719-13.906-14.031-13.812 13.969-13.844-13.906-15.094 13.938v-0.15625l-12.625-13.469 43.438-42.844-14.969-14.25-13.781 13.75-28.656-27.625-27.594 27.469 13.719 14.219 14.625-14.156 14.125 14.656-14.219 13.719-29.844 28.281 0.03125 2.2188h-0.09375l0.03125-1.625-13.812-14.031 13.875-13.812-14.094-14.344-13.875 14.125-26.938-27.188 13.656-14.406 14.156 14.156 28.281-28.875-0.03125-0.03125 55.969-56.219-13.312-13.312-13.75 14.156-14.156-14.156-13.531 14.344-15.219-14.344-13.344 14.156-14.594-14.594-13.75 14.594 42.156 42.281-14.875 14.156-13.844-13.719-27.406 28.062-28.219-28.469 13.469-13.312 13.562 13.531 14.719-14.719-42.719-41.844-13.781 14.438 13.5 14.156-12.969 12.938-14.812-14.469-27.75 28.125 13.188 13.125 14.625-13.312 83.469 84.281-14.031 14.406-13.969-13.906-14.031 13.812-14.062-14.156-13.938 14.094-13.969-14-15.281 14.062v1.9062h-0.03125v-2.0312l-12.625-13.469 43.438-42.844-14.938-14.25-13.812 13.75-28.656-27.625-27.594 27.469 13.719 14.219 14.625-14.156 14.125 14.656-14.188 13.719-29.875 28.312 0.03125 2.2812h-0.09375l0.03125-1.7812-13.656-13.938 13.75-13.719-13.969-14.25-13.75 14-27.594-27.938 14.031-15 14.156 14.156 28.188-28.75 0.03125 0.03125 56.031-56.406-13.344-13.312-13.75 14.156-14.156-14.156-13.531 14.344-15.219-14.344-13.344 14.156-14.594-14.594zm139.75 141.25 14.125-14.281-13.938-13.562-14.062 13.906 13.875 13.938zm196.81 0.1875 14-14.219-13.844-13.5-13.906 13.844 13.75 13.875zm195.62 0.21875 14-14.188-13.812-13.5-13.906 13.812 13.719 13.875zm195.28-0.4375 14.031-14.219-13.844-13.5-13.906 13.844 13.719 13.875zm-980.53 0.59375 14.125-14.281-13.969-13.562-14.031 13.906 13.875 13.938zm196.47-0.5 14.031-14.219-13.844-13.5-13.906 13.844 13.719 13.875zm869.74-112.22 14.049-14.069 13.622 13.758-13.921 14.326-13.75-14.016zm-195.39 0.40727 14.049-14.069 13.622 13.758-13.921 14.326-13.75-14.016zm-195.66-0.19047 14.049-14.069 13.622 13.758-13.921 14.326-13.75-14.016zm-195.75 0.60185 14.049-14.069 13.622 13.758-13.921 14.326-13.75-14.016zm-197.36-1.1942 14.049-14.069 13.622 13.758-13.921 14.326-13.75-14.016zm-195.87 0.71346 14.049-14.069 13.622 13.758-13.921 14.326-13.75-14.016z" fill="#800000" fill-rule="evenodd" stroke="#000" stroke-width="1.6"/>
 </g>
</svg>
